<svg width="50" height="50" viewBox="0 0 50 50" fill="none" xmlns="http://www.w3.org/2000/svg">
<g clip-path="url(#clip0_1_2)">
<path d="M38.2812 0H11.7188C5.24666 0 0 5.24666 0 11.7188V38.2812C0 44.7533 5.24666 50 11.7188 50H38.2812C44.7533 50 50 44.7533 50 38.2812V11.7188C50 5.24666 44.7533 0 38.2812 0Z" fill="#ED4245"/>
<path d="M25 13.3125C24.4249 13.3125 23.899 13.8012 23.9375 14.375L24.4688 28.7188C24.4688 28.8596 24.5247 28.9948 24.6243 29.0944C24.724 29.194 24.8591 29.25 25 29.25C25.1409 29.25 25.276 29.194 25.3757 29.0944C25.4753 28.9948 25.5313 28.8596 25.5313 28.7188L26.0625 14.375C26.101 13.8012 25.5751 13.3125 25 13.3125Z" stroke="white" stroke-width="2.13" stroke-linecap="round" stroke-linejoin="round"/>
<path d="M25 36.6875C25.5868 36.6875 26.0625 36.2118 26.0625 35.625C26.0625 35.0382 25.5868 34.5625 25 34.5625C24.4132 34.5625 23.9375 35.0382 23.9375 35.625C23.9375 36.2118 24.4132 36.6875 25 36.6875Z" stroke="white" stroke-width="2.13" stroke-linecap="round" stroke-linejoin="round"/>
</g>
<defs>
<clipPath id="clip0_1_2">
<rect width="50" height="50" fill="white"/>
</clipPath>
</defs>
</svg>
